<svg width="60" height="60" xmlns="http://www.w3.org/2000/svg" xmlns:xlink="http://www.w3.org/1999/xlink"><defs><circle id="a" cx="30" cy="30" r="30"/></defs><g fill="none" fill-rule="evenodd"><mask id="b" fill="#fff"><use xlink:href="#a"/></mask><use fill="#000" xlink:href="#a"/><g mask="url(#b)" fill="#F3BA2F" fill-rule="nonzero"><path d="M33.613 42.131v4.205l-3.665 2.154-3.561-2.154V42.13l3.56 2.155 3.666-2.155zM14 27.591l3.561 2.154v7.21l6.133 3.665v4.204L14 39.11V27.59zm31.896 0v11.535l-9.798 5.715v-4.204l6.132-3.665v-7.21l3.666-2.171zm-9.816-5.716l3.666 2.154v4.204L33.613 31.9v7.314l-3.56 2.154-3.545-2.154v-7.331l-6.358-3.666v-4.204l3.665-2.154 6.133 3.665 6.132-3.648zM20.15 31.24l3.561 2.154v4.204l-3.561-2.154v-4.204zm19.596 0v4.204l-3.561 2.154v-4.204l3.56-2.154zM17.56 18.209l3.666 2.155-3.666 2.154v4.204L14 24.568v-4.204l3.561-2.154zm24.773 0L46 20.365v4.204l-3.666 2.154v-4.204l-3.56-2.154 3.56-2.154zm-12.386 0l3.665 2.155-3.665 2.154-3.561-2.154 3.56-2.154zm0-7.209l9.798 5.716-3.561 2.154-6.133-3.666-6.254 3.666-3.561-2.154L29.947 11z"/></g></g></svg>