<svg height="36" width="36" xmlns="http://www.w3.org/2000/svg" xmlns:xlink="http://www.w3.org/1999/xlink"><defs><circle id="a" cx="18" cy="18" r="18"/><mask id="b" fill="#fff"><use fill-rule="evenodd" xlink:href="#a"/></mask></defs><g fill="none" fill-rule="evenodd"><use fill="#8247e5" xlink:href="#a"/><g fill="#fff" fill-rule="nonzero" mask="url(#b)"><path d="M23.246 14.486c-.372-.213-.852-.213-1.278 0l-2.983 1.758-2.024 1.118-2.93 1.758c-.372.213-.851.213-1.277 0l-2.29-1.385a1.298 1.298 0 0 1-.64-1.118v-2.663c0-.427.213-.853.64-1.119l2.29-1.332c.372-.213.852-.213 1.278 0l2.29 1.385c.373.213.64.64.64 1.119v1.757l2.023-1.171v-1.811c0-.426-.213-.852-.639-1.119l-4.26-2.503c-.374-.213-.853-.213-1.28 0L8.44 11.716c-.426.214-.639.64-.639 1.066v5.007c0 .426.213.852.64 1.118l4.314 2.503c.372.213.852.213 1.278 0l2.93-1.704 2.023-1.172 2.93-1.704c.373-.213.852-.213 1.278 0l2.29 1.331c.373.213.64.64.64 1.119v2.663c0 .426-.213.852-.64 1.119l-2.237 1.331c-.372.213-.852.213-1.278 0l-2.29-1.331a1.298 1.298 0 0 1-.64-1.119V20.24l-2.023 1.171v1.758c0 .426.213.852.639 1.119l4.314 2.503c.373.213.852.213 1.278 0l4.315-2.503c.373-.213.639-.64.639-1.119v-5.06c0-.426-.213-.852-.64-1.118z"/></g></g></svg>